<?xml version="1.0" standalone="no"?>
<!DOCTYPE svg PUBLIC "-//W3C//DTD SVG 20010904//EN"
 "http://www.w3.org/TR/2001/REC-SVG-20010904/DTD/svg10.dtd">
<svg version="1.0" xmlns="http://www.w3.org/2000/svg"
 width="1280.000000pt" height="640.000000pt" viewBox="0 0 1280.000000 640.000000"
 preserveAspectRatio="xMidYMid meet">
<metadata>
Created by potrace 1.15, written by Peter Selinger 2001-2017
</metadata>
<g transform="translate(0.000000,640.000000) scale(0.100000,-0.100000)"
fill="#000000" stroke="none">
<path d="M5987 5404 c-4 -4 -7 -118 -7 -254 l0 -246 36 -42 36 -42 -1199 -1
-1198 0 -162 -203 c-144 -179 -163 -207 -163 -239 0 -31 -3 -37 -21 -37 -12 0
-236 -21 -498 -46 -537 -51 -499 -52 -720 17 -69 22 -151 42 -181 45 -52 6
-241 -15 -1516 -165 -177 -21 -325 -41 -331 -44 -5 -3 -22 -24 -38 -47 -23
-34 -26 -44 -17 -63 6 -12 43 -222 82 -467 39 -245 87 -542 106 -660 20 -118
41 -221 47 -227 7 -7 43 -20 79 -29 l68 -17 287 101 c159 55 495 173 748 262
253 89 510 179 570 200 61 21 317 111 570 200 253 89 529 186 613 215 l152 53
28 -28 c32 -32 56 -36 262 -46 138 -7 150 -10 150 -50 0 -33 27 -48 92 -51 32
-1 64 -6 71 -10 7 -4 48 -10 92 -13 l80 -5 3 -39 c2 -22 -5 -71 -14 -108 -16
-62 -17 -75 -4 -141 22 -106 18 -219 -9 -297 -12 -36 -89 -202 -170 -370 -82
-168 -163 -342 -180 -388 -32 -84 -51 -185 -43 -227 9 -52 11 -52 393 -58 403
-6 402 -6 472 71 32 36 37 49 37 90 0 27 -11 73 -25 107 l-24 59 116 296 c162
412 141 371 212 408 33 18 74 44 90 58 l29 24 80 -68 80 -69 173 -6 c96 -4
214 -7 264 -7 l90 0 72 72 72 72 108 -3 c99 -2 263 11 321 26 23 5 23 4 16
-47 -6 -44 -4 -55 10 -66 10 -7 24 -10 32 -7 22 8 42 97 54 238 10 129 26 254
32 260 2 2 14 -5 27 -16 18 -15 36 -63 81 -222 70 -245 89 -299 153 -447 193
-446 438 -811 767 -1141 171 -172 260 -238 558 -418 162 -98 173 -103 200 -92
78 33 140 122 317 457 69 131 139 256 155 276 l30 37 -257 188 c-281 205 -375
288 -493 433 -135 167 -232 319 -381 598 -137 257 -188 398 -189 525 l0 47 35
0 35 0 0 105 c0 58 2 105 5 105 3 0 18 -8 33 -19 54 -37 87 -55 95 -53 4 1 22
-5 39 -14 37 -19 52 -16 269 62 157 57 237 75 429 99 210 26 355 35 591 35
383 0 721 27 838 67 25 8 59 26 74 39 20 16 41 24 68 24 35 0 42 4 61 35 l21
36 418 -2 418 -1 -6 -49 -6 -49 252 0 251 0 0 40 0 40 260 0 260 0 11 -26 c5
-15 7 -35 4 -45 -6 -18 0 -19 82 -19 86 0 90 1 118 30 16 16 32 30 37 30 4 0
14 -13 23 -30 15 -30 16 -30 100 -30 l85 0 0 45 0 46 243 -1 242 -1 25 53 c38
80 36 184 -5 258 l-30 55 -242 3 -243 2 0 214 c0 117 -3 254 -6 303 l-7 91
-34 -21 c-31 -18 -45 -19 -144 -13 l-109 7 0 -127 0 -128 -70 -162 c-38 -89
-70 -167 -70 -173 0 -8 -73 -11 -255 -11 l-255 0 0 24 c0 23 -3 24 -88 28 -71
3 -100 10 -145 32 -72 35 -155 125 -199 217 l-33 68 -176 1 c-97 0 -292 3
-433 7 -243 6 -257 7 -253 25 5 17 0 17 -63 12 -57 -6 -78 -3 -122 14 -93 37
-587 61 -1276 62 l-383 1 -8 22 c-5 13 -16 29 -25 36 -14 12 -78 18 -126 11
-8 -1 -96 4 -195 11 -131 9 -198 10 -245 2 -53 -8 -72 -7 -107 5 -39 15 -48
15 -110 -1 -37 -9 -112 -19 -165 -23 -54 -3 -98 -10 -98 -15 0 -18 84 -69 112
-69 33 0 98 -25 98 -37 0 -5 -37 -5 -82 -1 -76 8 -84 7 -100 -12 -16 -19 -28
-20 -327 -20 -171 0 -311 3 -311 6 0 4 9 21 19 38 17 28 20 56 22 286 l3 255
-245 3 c-135 1 -248 -1 -252 -4z m-864 -2013 c21 -5 41 -11 43 -14 3 -2 0 -25
-7 -51 -10 -42 -13 -45 -30 -32 -35 24 -99 87 -99 96 0 12 43 12 93 1z m424
-74 c16 -55 53 -76 104 -58 18 6 34 11 35 11 2 0 4 -22 4 -48 0 -27 7 -90 16
-140 l15 -91 -33 -30 -33 -30 -151 -1 c-83 0 -193 3 -244 7 l-94 6 -79 76 -79
76 11 60 c6 33 12 79 13 103 1 23 4 42 8 42 4 0 17 -12 31 -26 13 -14 54 -45
90 -69 36 -24 94 -67 128 -95 49 -38 72 -50 98 -50 41 0 69 13 83 40 10 18 6
23 -36 40 -90 39 -132 85 -147 165 -3 17 -8 37 -11 45 -5 13 12 15 126 13
l132 -2 13 -44z"/>
</g>
</svg>
