<svg xmlns="http://www.w3.org/2000/svg" viewBox="0 0 75.86 271.03"><defs><style>.cls-1{fill:#fff;}.cls-2{fill:#e3000f;}.cls-3{fill:#1a1a18;}</style></defs><g id="Layer_2" data-name="Layer 2"><g id="Layer_1-2" data-name="Layer 1"><rect class="cls-1" width="75.86" height="271.03"/><path class="cls-2" d="M23,241.05H36.42v-4.57a21.72,21.72,0,0,0-.52-5.07,6.8,6.8,0,0,0-2.08-3.55,6.41,6.41,0,0,0-4.38-1.38,5.69,5.69,0,0,0-4.1,1.38,6.66,6.66,0,0,0-1.89,3.57,25.64,25.64,0,0,0-.44,5.14Zm41.53,20.22H10.46V225.56a26.59,26.59,0,0,1,.92-6.93,19.85,19.85,0,0,1,3-6.35,15.25,15.25,0,0,1,5.78-4.75,19.83,19.83,0,0,1,8.87-1.81,22,22,0,0,1,11.23,2.63,16,16,0,0,1,6.57,7.17A23.54,23.54,0,0,1,49,225.63V240.5H64.54Z"/><path class="cls-3" d="M50.1,181.68H49v1.71a16.38,16.38,0,0,0,.76,5.53A3.12,3.12,0,0,0,53,191q3.38,0,3.38-4a4.69,4.69,0,0,0-.92-2.87,5.48,5.48,0,0,0-2.36-1.82,7.8,7.8,0,0,0-3-.61m-9.78,20.84h-9.9a62,62,0,0,1-1.6-7.1,54.77,54.77,0,0,1-.44-7.69,55.73,55.73,0,0,1,.53-8A22.51,22.51,0,0,1,31,173a12.25,12.25,0,0,1,4.5-5A13.88,13.88,0,0,1,43,166.09H64.54V182H59.46v.14A11.06,11.06,0,0,1,62.72,185a12.5,12.5,0,0,1,2,4,16.45,16.45,0,0,1,.64,4.61A18.38,18.38,0,0,1,64.26,200a10.39,10.39,0,0,1-3.43,4.75,9.35,9.35,0,0,1-5.87,1.8q-5,0-8-2.62a13.58,13.58,0,0,1-4-6.67,34.71,34.71,0,0,1-1.08-9c0-.8,0-1.64.1-2.5s.14-1.62.2-2.34.14-1.31.17-1.82a4.06,4.06,0,0,0-4.07,2.52,17.52,17.52,0,0,0-1,6.52A26.09,26.09,0,0,0,40.32,202.52Z"/><path class="cls-3" d="M29.2,163.65V157.6H21.05l-5.22-17.08H29.2v-7.73H39.37v7.73h10a5.17,5.17,0,0,0,3.4-1A3.33,3.33,0,0,0,54,136.79a12.43,12.43,0,0,0-.62-4H63.53a42.72,42.72,0,0,1,1.82,11.73q0,6.61-3.39,9.85T51.59,157.6H39.37v6.05Z"/><path class="cls-3" d="M29.2,128.86v-16h8v-.14q-8.8-3.58-8.81-10.78a10,10,0,0,1,.34-2.78H42.89a10.83,10.83,0,0,0-.53,3.88,8,8,0,0,0,1.25,4.35,9.18,9.18,0,0,0,3.4,3.2,9.66,9.66,0,0,0,4.71,1.19H64.54v17.09Z"/><path class="cls-3" d="M64.54,50H29.2V33.83h6.11v-.14a10.12,10.12,0,0,1-5.23-4.55,14.34,14.34,0,0,1-1.7-7q0-12.4,11.59-12.4H64.54V26.84H44.19a9.65,9.65,0,0,0-3.52.52c-.87.34-1.3,1.17-1.3,2.47s.43,2.17,1.3,2.52a9.65,9.65,0,0,0,3.52.52H64.54Z"/><path class="cls-1" d="M18.49,247.19v7.47h1.34a2.25,2.25,0,0,0,1.46-.42A2.15,2.15,0,0,0,22,253a8.46,8.46,0,0,0,.2-2.07,8.73,8.73,0,0,0-.21-2.12,2.23,2.23,0,0,0-.73-1.23,2.35,2.35,0,0,0-1.46-.41Zm-5.38,11.05V243.85H21a9.65,9.65,0,0,1,3.66.62A4.66,4.66,0,0,1,27,246.7a9.38,9.38,0,0,1,.85,4.39,8.55,8.55,0,0,1-.9,4.2,5.12,5.12,0,0,1-2.47,2.27,9.07,9.07,0,0,1-3.69.68Z"/><path class="cls-1" d="M37.05,246.83l-1.48,4.54h3l-1.47-4.54ZM28.87,257.7l4.73-13.85h7.12l4.8,13.85H40.1l-.89-3H34.85l-.83,3Z"/><polygon class="cls-1" points="61 243.85 55.98 253.38 55.98 257.6 50.85 257.6 50.85 253.38 45.89 243.85 51.46 243.85 53.55 249.6 53.59 249.6 55.7 243.85 61 243.85"/><path class="cls-3" d="M55.28,75.1c-.16-12.74-14.83-3-16.68.11,1.59,3.16,16.84,12.63,16.68-.11m-9,22a18.37,18.37,0,0,1-9.88-2.48,14.92,14.92,0,0,1-6-7.4,32,32,0,0,1-2-12,32,32,0,0,1,2-12,15.12,15.12,0,0,1,6-7.43,18,18,0,0,1,9.89-2.52,20.06,20.06,0,0,1,10.38,2.52,16,16,0,0,1,6.52,7.46,29.07,29.07,0,0,1,2.23,12,29.1,29.1,0,0,1-2.23,12,15.8,15.8,0,0,1-6.53,7.42A20.44,20.44,0,0,1,46.27,97.12Z"/></g></g></svg>